<?xml version="1.0" encoding="utf-8"?>
<!-- Generator: Adobe Illustrator 27.5.0, SVG Export Plug-In . SVG Version: 6.00 Build 0)  -->
<svg version="1.1" xmlns="http://www.w3.org/2000/svg" xmlns:xlink="http://www.w3.org/1999/xlink" x="0px" y="0px"
	 viewBox="0 0 500 500" style="enable-background:new 0 0 500 500;" xml:space="preserve">
<g id="BACKGROUND">
	<!-- <rect style="fill:#EDF0F7;" width="500" height="500"/> -->
</g>
<g id="OBJECTS">
	<ellipse style="fill:#ffffff;" cx="210.348" cy="392.998" rx="165.13" ry="29.784"/>
	<path style="fill:#ffffff;" d="M301.726,165.281c-2.298-3.124-4.723-6.891-3.596-10.603c0.725-2.384,2.78-4.106,4.867-5.467
		c10.001-6.519,23.136-8.235,31.272-16.971c1.058-1.136,2.025-2.388,3.296-3.28c1.272-0.893,2.963-1.38,4.396-0.782
		c0.915,0.381,1.632,1.16,2.57,1.481c2.147,0.738,4.217-1.114,5.918-2.619c7.232-6.402,17.835-8.751,27.695-5.978
		c4.616,0.724,9.077,2.198,13.513,3.667c3.483,1.153,6.999,2.321,10.134,4.227c3.132,1.905,5.785,4.489,8.41,7.049
		c0.942,0.918,1.893,1.85,2.577,2.974c0.72,1.187,1.111,2.54,1.638,3.825c2.751,6.704,8.766,12.038,15.613,14.411
		c8.078,2.8,13.576,5.227,19.924,9.268c4.075,1.987,8.134,4.005,12.482,6.402c1.057-0.057,2.046,0.526,2.84,1.223
		c1.051,0.923,1.914,2.14,2.107,3.525c0.307,2.215-1.145,4.316-2.871,5.737c-1.725,1.421-3.781,2.423-5.412,3.951
		c-1.035,0.969-1.881,2.133-2.976,3.033c-1.005,0.825-2.189,1.4-3.365,1.955c-4.552,2.145-9.333,4.127-14.363,4.268
		c-2.077,0.059-4.148-0.201-6.21-0.46c-4.901-0.615-9.802-1.23-15.092-1.979c-2.314,0.928-4.699,1.764-7.181,2.003
		c-2.482,0.238-5.097-0.169-7.166-1.559c-1.298-0.873-2.348-2.102-3.73-2.835c-0.689-0.366-1.441-0.597-2.201-0.776
		c-3.066-0.722-6.263-0.611-9.405-0.388c-1.443,0.102-2.897,0.229-4.281,0.649c-3.436,1.043-6.171,3.65-8.886,6.565
		c-2.212,2.376-4.255,4.909-6.566,7.187c-0.831,0.818-1.707,1.628-2.774,2.097c-0.802,0.353-1.678,0.498-2.547,0.621
		c-1.789,0.254-3.588,0.429-5.254,0.809c-0.242,2.86,1.369,5.507,2.124,8.276c0.848,3.103,0.598,6.493-0.696,9.438
		c-0.494,1.126-1.136,2.189-1.535,3.351c-0.817,2.374-0.568,4.993,0.075,7.421c0.642,2.426,1.66,4.737,2.388,7.14
		c1.401,4.621,1.709,9.569,1.513,14.349c8.57-1.71,17.327-2.218,26.051-2.722c1.698-0.098,3.409-0.196,5.096,0.027
		c1.69,0.223,3.319,0.762,4.936,1.3c4.764,1.58,9.528,3.161,14.293,4.741c5.321,1.766,10.869,3.554,16.612,3.091
		c1.808-0.627,3.616-1.254,5.423-1.882c0.996-0.345,2.031-0.695,3.077-0.579c1.663,0.186,2.949,1.478,4.403,2.306
		c1.957,1.111,4.407,1.468,6.134,3.344c1.456-0.14,2.938-0.009,4.346,0.388c0.528,0.15,1.068,0.35,1.433,0.758
		c0.137,0.152,0.249,0.368,0.169,0.557c-0.077,0.181-0.292,0.252-0.482,0.295c-1.5,0.332-3.123,0.13-4.785,1.137
		c0.861,2.064,0.23,4.656-1.484,6.093c-2.397,2.009-6.202,1.654-8.486,3.789c-0.583,0.547-1.036,1.23-1.675,1.711
		c-0.731,0.549-1.685,0.788-2.588,0.65c-1.084-0.165-2.056-0.84-3.151-0.897c-1.192-0.062-2.283,0.612-3.43,0.942
		c-2.673,0.768-5.503-0.366-7.952-1.683c-2.451-1.317-4.914-2.879-7.692-3.038c-0.63-0.035-1.287,0.01-1.845,0.306
		c-0.516,0.274-0.9,0.737-1.292,1.169c-1.27,1.399-2.911,2.656-4.798,2.711c-3.01,0.09-5.335-2.813-8.31-3.278
		c-2.991-0.467-5.727,1.598-8.057,3.963c4.037,1.977,7.295,5.201,10.693,8.142c3.399,2.942,7.191,5.727,11.618,6.507
		c2.473,0.435,5.01,0.215,7.517,0.347c2.508,0.132,5.132,0.685,6.995,2.371c0.631,0.572,1.156,1.259,1.819,1.794
		c0.673,0.543,1.468,0.912,2.181,1.403c1.021,0.705,1.865,1.666,2.422,3.165c1.368,0.446,2.757,0.903,3.943,1.716
		c0.313,0.213,0.617,0.459,0.799,0.791c0.071,0.129,0.118,0.294,0.035,0.412c-0.046,0.063-0.12,0.098-0.193,0.126
		c-0.609,0.232-1.287,0.106-1.934,0.012c-0.99-0.144-1.993-0.205-2.789,0.032c-2.103,3.307-6.092,5.317-10.001,5.038
		c-1.18-0.084-2.376-0.359-3.53-0.1c-1.352,0.302-2.497,1.31-3.877,1.452c-1.208,0.125-2.372-0.435-3.576-0.589
		c-1.144-0.147-2.306,0.073-3.455-0.012c-1.572-0.117-3.092-0.828-4.188-1.96c-1.013-1.045-1.725-2.47-3.051-3.071
		c-2.269-1.03-4.911,0.907-7.351,0.4c-2.083-0.432-3.36-2.454-4.657-4.139c-0.839-1.091-1.804-2.123-3.023-2.763
		c-1.217-0.64-2.729-0.838-3.972-0.249c-1.244,0.589-2.081,2.076-2.03,3.333c-1.431,0.46-2.891-0.472-4.186-1.236
		c-3.776-2.226-8.22-3.301-12.596-3.05c0,0,0.099,0.972,0.006,1.074c-2.287,0.525-4.649-1.405-6.908-0.763
		c0,0,0.364,1.626,0.009,1.772c-1.182-0.09-2.362-0.181-3.543-0.271c-0.52-0.039-1.045-0.081-1.542-0.238
		c-0.64-0.202-1.209-0.592-1.854-0.776c-0.651-0.186-1.343-0.155-2.02-0.122c-0.907,0.045-1.815,0.089-2.722,0.134
		c0,0-0.215,1.746-0.784,1.677c-1.903-0.467-3.356-1.97-4.618-3.468c-0.422-0.503-0.843-1.018-1.386-1.388
		c-0.5-0.341-1.08-0.541-1.651-0.742c-4.762-1.682-9.395-3.735-14.896-5.958c-17.99,6.281-36.514,12.646-55.553,11.853
		c-9.139-0.381-18.138-2.413-27.264-3.029c-5.447-0.367-10.93-0.228-16.346-0.902c-14.909-1.854-28.461-9.715-43.231-12.465
		c-5.569-1.038-11.519-1.295-16.712,0.97c-5.192,2.265-9.361,7.592-8.272,13.787c1.079,3.775-0.637,7.724-2.313,11.273
		c-1.383,2.927-2.781,5.88-4.764,8.438c-1.614,2.083-3.585,3.861-5.618,5.538c-7.953,6.56-16.964,11.693-25.853,16.915
		c-1.918,1.127-3.863,2.285-5.37,3.922c-1.505,1.638-2.536,3.857-2.24,6.062c0.302,2.249,1.881,4.086,3.39,5.78
		c1.704,1.911,3.409,3.823,5.113,5.734c0.793,0.89,1.615,1.801,2.688,2.317c1.644,0.79,3.582,0.525,5.373,0.871
		c2.636,0.511,4.808,2.307,6.855,4.04c1.407,1.192,2.935,2.63,3.237,4.583c1.168,0.41,2.306,0.908,3.399,1.487
		c0.581,0.307,1.163,0.648,1.571,1.162c0.049,0.063,0.098,0.133,0.099,0.212c0.002,0.079-0.042,0.151-0.095,0.21
		c-0.299,0.336-0.813,0.344-1.261,0.309c-1.359-0.108-2.726-0.39-3.937,0.135c-1.251,3.882-5.912,6.055-9.883,5.126
		c-1.29-0.303-2.54-0.877-3.864-0.871c-0.997,0.005-1.964,0.34-2.958,0.428c-2.33,0.204-4.577-0.962-6.39-2.439
		c-1.813-1.477-3.338-3.286-5.183-4.723c-1.469-1.144-3.119-2.035-4.614-3.145c-4.53-3.364-7.348-8.478-10.434-13.202
		c-3.095-4.737-6.584-9.215-10.421-13.375c-1.472-1.597-3.016-3.177-4.025-5.1c-1.01-1.924-1.42-4.296-0.513-6.272
		c1.022-2.232,3.4-3.438,5.412-4.844c2.264-1.582,4.222-3.599,5.739-5.906c1.16-1.765,2.014-4.235,0.669-5.863
		c-0.568-0.688-1.421-1.064-2.258-1.369c-4.088-1.492-8.631-1.846-12.832-0.711c-4.201,1.135-8.021,3.81-10.281,7.528
		c-1.255,2.066-2.013,4.388-2.759,6.686c-1.568,4.823-3.147,9.704-3.51,14.763c-0.172,2.401-0.088,4.911-1.128,7.082
		c-1.351,2.82-4.291,4.463-7.338,6.133c-0.55,1.49-1.429,2.856-2.555,3.975c-0.099,0.097-0.204,0.197-0.338,0.234
		c-0.132,0.037-0.3-0.01-0.353-0.137c-0.037-0.089-0.013-0.19,0.013-0.283c0.294-1.054,0.589-2.109,1.026-3.157
		c-2.352,0.565-5.011-0.641-6.134-2.781c-0.859-1.637-0.854-3.625-1.735-5.251c-0.399-0.735-0.964-1.367-1.399-2.082
		c-1.558-2.565-1.119-6.175,1.483-8.876c-0.704-1.833-0.453-3.916,0.226-5.758c0.679-1.842,1.757-3.507,2.744-5.204
		c5.252-9.04,8.04-19.499,7.958-29.953c-0.025-3.14-0.296-6.34,0.508-9.375c0.168-0.638,0.396-1.283,0.845-1.766
		c1.209-1.302,3.305-0.878,5.065-0.631c4.13,0.578,8.467-0.482,12.429-3.278l-4.547-17.916c-0.42-1.654-0.842-3.318-1.018-5.015
		c-0.5-4.833,1.022-9.673,3.18-14.026c2.158-4.353,4.954-8.36,7.258-12.637c1.35-2.507,2.535-5.113,4.123-7.476
		c2.461-3.663,6.098-6.309,9.313-9.553c1.941-1.958,3.562-4.41,3.966-7.137c0.177-1.195,0.071-2.413-0.075-3.613
		c-1.702-14.061-8.546-27.52-7.539-41.647c0.793-11.119,6.791-21.528,16.015-28.692c11.579-8.994,27.25-13.315,41.466-9.723
		c4.35,1.099,8.675,2.957,11.668,6.299c0.277,0.31,0.552,0.655,0.603,1.067c0.044,0.357-0.09,0.717-0.294,1.015
		c-0.608,0.887-1.728,1.235-2.764,1.525c-2.462,0.689-4.924,1.377-7.387,2.065c-2.586,0.723-5.181,1.448-7.838,1.839
		c-3.619,0.532-7.33,0.439-10.888,1.285c-2.756,0.655-5.35,1.858-7.892,3.112c-5.028,2.483-9.892,5.739-12.442,11.062
		c-3.919,8.177-3.912,17.796-0.924,26.358c3.134,8.977,9.781,17.734,19.174,19.209c3.834,0.602,7.736-0.069,11.574-0.643
		c16.109-2.408,32.473-3.109,48.729-2.088c8.231,0.516,16.428,1.472,24.659,2.02c9.337,0.621,18.753,1.265,28.498,0.225
		c8.077-0.863,14.202-7.862,21.95-10.532c-0.796-0.756-1.785-1.306-2.847-1.584c0.732-1.273,1.875-2.27,3.132-3.032
		c1.255-0.762,2.628-1.305,3.994-1.844c2.099-0.828,4.238-1.66,6.825-1.836c-0.861-0.662-1.641-1.429-2.317-2.279
		c0.139-0.352,0.539-0.513,0.902-0.623c5.329-1.616,11.212-0.299,16.54-1.912c5.374-1.627,9.4-5.956,13.543-9.747
		C295.861,170.262,298.806,167.89,301.726,165.281z"/>
</g>
</svg>
